<svg width="46" height="46" viewBox="0 0 46 46" fill="none" xmlns="http://www.w3.org/2000/svg">
<g clip-path="url(#clip0_2_116)">
<path fill-rule="evenodd" clip-rule="evenodd" d="M39.5896 26.5361C41.1154 28.0258 42.7259 29.4275 44.0945 31.0675C44.699 31.7963 45.2714 32.5483 45.7092 33.3941C46.3297 34.5964 45.7677 35.9194 44.6897 35.9912L37.9883 35.9882C36.2599 36.1316 34.881 35.4358 33.7217 34.254C32.7938 33.309 31.9346 32.3032 31.0425 31.3262C30.6767 30.9269 30.2939 30.5512 29.8365 30.2542C28.9217 29.6604 28.1276 29.8422 27.6049 30.7963C27.0724 31.7668 26.9516 32.8414 26.8993 33.9229C26.8276 35.5009 26.3506 35.9158 24.7654 35.988C21.3779 36.1478 18.1629 35.6353 15.1763 33.9264C12.5432 32.4198 10.5013 30.293 8.72409 27.8853C5.26381 23.1969 2.61393 18.0451 0.232316 12.7489C-0.303767 11.5557 0.0882822 10.9152 1.40483 10.8925C3.59103 10.8501 5.77692 10.8531 7.96568 10.8895C8.85422 10.9025 9.44244 11.4121 9.78552 12.2515C10.9683 15.1599 12.4156 17.9269 14.2323 20.4917C14.7161 21.1745 15.2094 21.8573 15.9119 22.338C16.689 22.8701 17.2807 22.6937 17.6463 21.828C17.8783 21.2791 17.9799 20.6878 18.0322 20.0999C18.2054 18.0773 18.2282 16.0581 17.9244 14.0425C17.7379 12.7846 17.0294 11.9703 15.7742 11.7322C15.1337 11.6109 15.229 11.3725 15.5392 11.0069C16.0778 10.3764 16.5844 9.98389 17.5943 9.98389H25.1679C26.3602 10.2192 26.625 10.7548 26.7883 11.9546L26.7948 20.3673C26.7818 20.8317 27.0268 22.2099 27.8633 22.5174C28.5328 22.7362 28.9742 22.2006 29.3759 21.776C31.1892 19.8515 32.4834 17.577 33.6396 15.2218C34.1527 14.1862 34.5939 13.1108 35.0214 12.0362C35.3382 11.2388 35.8353 10.8464 36.7335 10.8638L44.0227 10.8703C44.2388 10.8703 44.4575 10.8735 44.6668 10.9093C45.8951 11.1186 46.2317 11.647 45.8524 12.8464C45.2546 14.7282 44.0916 16.2964 42.9545 17.8719C41.7389 19.5539 40.4388 21.1783 39.2333 22.8703C38.1258 24.4153 38.2138 25.1941 39.5896 26.5361Z" fill="#DA1311"/>
</g>
<defs>
<clipPath id="clip0_2_116">
<rect width="46" height="46" fill="white"/>
</clipPath>
</defs>
</svg>
