<svg width="30" height="31" viewBox="0 0 30 31" fill="none" xmlns="http://www.w3.org/2000/svg">
<path d="M15.6646 16.1023L11.046 18.8417C10.8399 18.9678 10.6044 19.0376 10.3628 19.0442C10.1213 19.0508 9.88233 18.9939 9.66971 18.8791C9.45708 18.7644 9.27828 18.5959 9.15116 18.3905C9.02404 18.185 8.95306 17.9498 8.94531 17.7083V12.375C8.95306 12.1335 9.02404 11.8983 9.15116 11.6929C9.27828 11.4874 9.45708 11.3189 9.66971 11.2042C9.88233 11.0895 10.1213 11.0326 10.3628 11.0391C10.6044 11.0457 10.8399 11.1156 11.046 11.2417L15.6646 13.981C15.8512 14.0882 16.0062 14.2427 16.1139 14.4289C16.2217 14.6152 16.2784 14.8265 16.2784 15.0417C16.2784 15.2568 16.2217 15.4682 16.1139 15.6544C16.0062 15.8406 15.8512 15.9951 15.6646 16.1023ZM18.7786 18.7083V11.375C18.7786 11.2424 18.726 11.1152 18.6322 11.0214C18.5384 10.9277 18.4113 10.875 18.2786 10.875C18.146 10.875 18.0189 10.9277 17.9251 11.0214C17.8313 11.1152 17.7786 11.2424 17.7786 11.375V18.7083C17.7786 18.8409 17.8313 18.9681 17.9251 19.0619C18.0189 19.1557 18.146 19.2083 18.2786 19.2083C18.4113 19.2083 18.5384 19.1557 18.6322 19.0619C18.726 18.9681 18.7786 18.8409 18.7786 18.7083ZM21.4453 18.7083V11.375C21.4453 11.2424 21.3926 11.1152 21.2989 11.0214C21.2051 10.9277 21.0779 10.875 20.9453 10.875C20.8127 10.875 20.6855 10.9277 20.5918 11.0214C20.498 11.1152 20.4453 11.2424 20.4453 11.375V18.7083C20.4453 18.8409 20.498 18.9681 20.5918 19.0619C20.6855 19.1557 20.8127 19.2083 20.9453 19.2083C21.0779 19.2083 21.2051 19.1557 21.2989 19.0619C21.3926 18.9681 21.4453 18.8409 21.4453 18.7083Z" fill="white"/>
</svg>
