<svg width="30" height="31" viewBox="0 0 30 31" fill="none" xmlns="http://www.w3.org/2000/svg">
<path d="M18.8992 11.1641C18.6242 11.0703 18.3492 11.1016 18.143 11.2891L14.843 14.2891V11.7266C14.843 11.3828 14.5336 11.1016 14.1555 11.1016C13.9836 11.1016 13.8117 11.1641 13.6742 11.2891L10.0305 14.6016C9.75547 14.8516 9.75547 15.2266 10.0305 15.4766L13.6742 18.7891C13.9492 19.0391 14.3617 19.0391 14.6367 18.7891C14.7742 18.6641 14.843 18.5078 14.843 18.3516V15.7891L18.143 18.7891C18.418 19.0391 18.8305 19.0391 19.1055 18.7891C19.243 18.6641 19.3117 18.5078 19.3117 18.3516V11.7266C19.3117 11.4766 19.1398 11.2578 18.8992 11.1641Z" fill="white"/>
</svg>
