<svg width="40" height="40" viewBox="0 0 40 40" fill="none" xmlns="http://www.w3.org/2000/svg">
<g clip-path="url(#clip0_2_178)">
<path d="M28.0296 14.1705L17.8864 22.4614L17.4091 22.8523C17.3043 22.9354 17.2358 23.056 17.2182 23.1886L17.1114 24.0705L16.8182 26.5477C16.8209 26.5779 16.8115 26.6078 16.7921 26.6311C16.7728 26.6543 16.7449 26.6689 16.7148 26.6716C16.6847 26.6743 16.6547 26.6649 16.6314 26.6455C16.6082 26.6261 16.5936 26.5983 16.5909 26.5682L15.7659 24.0909L14.9137 21.5568C14.8773 21.4433 14.8819 21.3205 14.9268 21.2101C14.9717 21.0996 15.0539 21.0083 15.1591 20.9523L25.7137 14.9023L27.7 13.7659C27.9887 13.5977 28.2841 13.9614 28.0296 14.1705Z" fill="#DA1311"/>
<path d="M34.5455 0H5.45455C4.00791 0 2.62053 0.574674 1.5976 1.5976C0.574674 2.62053 0 4.00791 0 5.45455L0 34.5455C0 35.9921 0.574674 37.3795 1.5976 38.4024C2.62053 39.4253 4.00791 40 5.45455 40H34.5455C35.9921 40 37.3795 39.4253 38.4024 38.4024C39.4253 37.3795 40 35.9921 40 34.5455V5.45455C40 4.00791 39.4253 2.62053 38.4024 1.5976C37.3795 0.574674 35.9921 0 34.5455 0ZM32.475 11.5773L28.5705 28.8295C28.3864 29.6386 27.3591 30.0045 26.6386 29.5114L20.7432 25.5114L17.7409 28.35C17.6185 28.4649 17.4699 28.5481 17.308 28.5926C17.1461 28.637 16.9758 28.6413 16.8119 28.605C16.648 28.5687 16.4954 28.493 16.3674 28.3844C16.2394 28.2758 16.1398 28.1376 16.0773 27.9818L14.9932 24.8L13.9091 21.6182L8.09773 20.0273C7.93524 19.9918 7.78903 19.9036 7.68182 19.7765C7.57461 19.6493 7.51241 19.4903 7.5049 19.3242C7.49738 19.1581 7.54496 18.9941 7.64025 18.8578C7.73554 18.7215 7.8732 18.6205 8.03182 18.5705L30.4818 10.4818L30.8955 10.3341C31.7659 10.0295 32.6659 10.7341 32.475 11.5773Z" fill="#DA1311"/>
</g>
<defs>
<clipPath id="clip0_2_178">
<rect width="40" height="40" fill="white"/>
</clipPath>
</defs>
</svg>
