<svg width="40" height="40" viewBox="0 0 40 40" fill="none" xmlns="http://www.w3.org/2000/svg">
<g clip-path="url(#clip0_2_186)">
<path d="M34.5455 0H5.45455C4.00791 0 2.62053 0.574674 1.5976 1.5976C0.574674 2.62053 0 4.00791 0 5.45455L0 34.5455C0 35.9921 0.574674 37.3795 1.5976 38.4024C2.62053 39.4253 4.00791 40 5.45455 40H34.5455C35.9921 40 37.3795 39.4253 38.4024 38.4024C39.4253 37.3795 40 35.9921 40 34.5455V5.45455C40 4.00791 39.4253 2.62053 38.4024 1.5976C37.3795 0.574674 35.9921 0 34.5455 0ZM31.5273 27.1455C30.9455 27.2273 28.1 27.1455 27.9523 27.1455C27.2167 27.1551 26.507 26.8742 25.9773 26.3636C25.3773 25.7841 24.8409 25.1477 24.2545 24.5455C24.0818 24.3606 23.894 24.1903 23.6932 24.0364C23.225 23.6773 22.7614 23.7568 22.5409 24.3114C22.3688 24.9082 22.2486 25.5188 22.1818 26.1364C22.1432 26.6955 21.7886 27.0455 21.1614 27.0841C20.7727 27.1045 20.3841 27.1136 20 27.1023C18.6001 27.0946 17.222 26.7542 15.9795 26.1091C14.6348 25.3605 13.4631 24.3367 12.5409 23.1045C11.025 21.1682 9.81364 19.0409 8.73182 16.8477C8.675 16.7364 7.56591 14.3773 7.53864 14.2659C7.43864 13.8955 7.53864 13.5386 7.84545 13.4136C8.04091 13.3386 11.6955 13.4136 11.7568 13.4136C12.0287 13.4118 12.2941 13.4964 12.5148 13.6554C12.7354 13.8143 12.8997 14.0393 12.9841 14.2977C13.6603 16.0273 14.5851 17.6489 15.7295 19.1114C15.8899 19.3062 16.0774 19.4769 16.2864 19.6182C16.5841 19.8227 16.8659 19.7523 16.9886 19.4068C17.1343 18.9307 17.2198 18.4382 17.2432 17.9409C17.2636 16.9545 17.2432 16.3068 17.1886 15.3205C17.1523 14.6886 16.9295 14.1364 15.9977 13.9682C15.7114 13.9159 15.6864 13.6795 15.8705 13.4432C16.2545 12.9545 16.7795 12.875 17.3682 12.8455C18.2455 12.7955 19.1227 12.8295 20 12.8455H20.1909C20.5727 12.8441 20.9536 12.8829 21.3273 12.9614C21.5483 13.0065 21.7489 13.1218 21.8992 13.2901C22.0495 13.4584 22.1415 13.6707 22.1614 13.8955C22.2065 14.1443 22.2255 14.3972 22.2182 14.65C22.1955 15.725 22.1432 16.8023 22.1318 17.8773C22.1212 18.3038 22.1601 18.7301 22.2477 19.1477C22.3727 19.7205 22.7659 19.8636 23.1568 19.45C23.6639 18.9128 24.1282 18.3368 24.5455 17.7273C25.2859 16.6234 25.896 15.4374 26.3636 14.1932C26.6182 13.5545 26.8182 13.4136 27.5 13.4136H31.3773C31.6078 13.4096 31.8377 13.4402 32.0591 13.5045C32.1375 13.5251 32.2107 13.5617 32.2743 13.6119C32.3379 13.6622 32.3905 13.725 32.4287 13.7964C32.4668 13.8679 32.4899 13.9465 32.4963 14.0273C32.5027 14.1081 32.4924 14.1893 32.4659 14.2659C32.275 15.1159 31.8159 15.8409 31.3295 16.5386C30.5409 17.6545 29.7091 18.7432 28.9023 19.8455C28.8052 19.988 28.7164 20.1359 28.6364 20.2886C28.3318 20.8386 28.3545 21.1455 28.7955 21.6C29.5 22.325 30.2523 23.0023 30.9318 23.7477C31.4302 24.2901 31.8804 24.8749 32.2773 25.4955C32.7614 26.2773 32.4545 27.0136 31.5273 27.1455Z" fill="#DA1311"/>
</g>
<defs>
<clipPath id="clip0_2_186">
<rect width="40" height="40" fill="white"/>
</clipPath>
</defs>
</svg>
