<svg width="20" height="21" viewBox="0 0 20 21" fill="none" xmlns="http://www.w3.org/2000/svg">
<path d="M15.9167 4.11719C15.5833 3.86719 15.1667 3.86719 14.8333 4.11719C14.5 4.45052 14.4167 4.95052 14.75 5.28385C17.3333 7.86719 17.3333 12.1172 14.75 14.7005C14.4167 15.0339 14.4167 15.5339 14.75 15.8672C14.9167 16.0339 15.0833 16.1172 15.3333 16.1172C15.5833 16.1172 15.75 16.0339 15.9167 15.8672C19.1667 12.7005 19.1667 7.36719 15.9167 4.11719Z" fill="#696666"/>
<path d="M13.5026 6.53906C13.1693 6.28906 12.7526 6.28906 12.4193 6.53906C12.0859 6.8724 12.0026 7.3724 12.3359 7.70573C13.6693 9.03906 13.6693 11.1224 12.3359 12.4557C12.0026 12.7891 12.0026 13.2891 12.3359 13.6224C12.5026 13.7891 12.6693 13.8724 12.9193 13.8724C13.1693 13.8724 13.3359 13.7891 13.5026 13.6224C15.5026 11.6224 15.5026 8.45573 13.5026 6.53906Z" fill="#696666"/>
<path d="M9.5013 3.4539C9.16797 3.28723 8.83464 3.37056 8.58464 3.62056L5.5013 6.7039H3.33464C2.41797 6.7039 1.66797 7.4539 1.66797 8.37056V11.7039C1.66797 12.6206 2.41797 13.3706 3.33464 13.3706H5.5013L8.58464 16.4539C8.7513 16.6206 8.91797 16.7039 9.16797 16.7039C9.2513 16.7039 9.41797 16.7039 9.5013 16.6206C9.83463 16.4539 10.0013 16.2039 10.0013 15.8706V4.2039C10.0013 3.87056 9.83463 3.53723 9.5013 3.4539Z" fill="#696666"/>
</svg>
